/* XPM */
static char *result[] = {
/* columns rows colors chars-per-pixel */
"48 48 7 1 ",
"  c #915841",
". c #A0654D",
"X c #B56E4B",
"o c #E09669",
"O c #F6C192",
"+ c #CFCCC5",
"@ c None",
/* pixels */
"@@@@@@@@@@@@@@@@@@@@@@@@@@@@@@@@@@@@@@@@@@@@@@@@",
"@@@@@@@@@@@@@@@@@@@@@@@@@@@@@@@@@@@@@@@@@@@@@@@@",
"@@@@@@@@@@@@@@@@@@@@@@@@@@@@@@@@@@@@@@@@@@@@@@@@",
"@@@@@@@@@@@@@@@@@@@@@@@@@@@@@@@@@@@@@@@@@@@@@@@@",
"@@@@@@@@@      @@@@@@@@@@@@@@@@@@@@@@@@@@@@@@@@@",
"@@@@@@@@ .oXXo. @@@@@@@@@@@@@@@@@      @@@@@@@@@",
"@@@@@@@ .oXXXXo. @@@@@@@@@@@@@@@ .oXXo. @@@@@@@@",
"@@@@@@@ XoXXXXoX @@@@@@@@@@@@@@ .oXXXXo. @@@@@@@",
"@@@@@@ .XXoXXoXX. @@@@@@@@@@@@@ XoXXXXoX @@@@@@@",
"@@@@@@ ..XXXXXX.. @@@@@@@@@@@@ .XXoXXoXX. @@@@@@",
"@@@@@@  ...XX...  @@@@@@@@@@@@ ..XXXXXX.. @@@@@@",
"@@@@@@@  ......  @@@@@@@@@@@@@  ...XX...  @@@@@@",
"@@@@@@@    ..    @@@@@@@@@@@@@@  ......  @@@@@@@",
"@@@@@@@@        @@@@@@@@@@@@@@@    ..    @@@@@@@",
"@@@@@@@X+      +X@@@@@@@@@@@@@@@        oX@@@@@@",
"@@@@@@Xo++++++++oX@@@@@@@@@@@@@X+      +OX@@@@@@",
"@@@@@@XOo++++++oOX@@@@@@@@@@@@@X++++++++X@@@@@@@",
"@@@@@@@XX++++++XX@@@@@@@@@@@@@@Xo++++++X@@@@@@@@",
"@@@@@@@@XooXXooX@@@@@@@@@@@@@@@XOo+++++X@@@@@@@@",
"@@@@@@@@@XX@@XX@@@@@@@@@@@@@@@@@XXo++++X@@@@@@@@",
"@@@@@@@@@@@@@@@@@@@@@@@@@@@@@@@@@@XXooX@@@@@@@@@",
"@@@@@@@@@@@@@@@@@@@@@@@@@@@@@@@@@@@@XX@@@@@@@@@@",
"@@@@@@@@@@@@@@@@@@@@@@@@@@@@@@@@@@@@@@@@@@@@@@@@",
"@@@@@@@@@@@@@@@@@@@@@@@@@@@@@@@@@@@@@@@@@@@@@@@@",
"@@@@@@@@@@@@@@@@@@@@@@@@@@@@@@@@@@@@@@@@@@@@@@@@",
"@@@@@@@@@@@@@@@@@@@@@@@@@@@@@@@@@@@@@@@@@@@@@@@@",
"@@@@@@@@@@@@@@@@@@@@@@@@@@@@@@@@@@@@@@@@@@@@@@@@",
"@@@@@@@@@@@@@@@@@@@@@@@@@@@@@@@@@@@@@@@@@@@@@@@@",
"@@@@@@@@@      @@@@@@@@@@@@@@@@@@@@@@@@@@@@@@@@@",
"@@@@@@@@ .oXXo. @@@@@@@@@@@@@@@@@      @@@@@@@@@",
"@@@@@@@ .oXXXXo. @@@@@@@@@@@@@@@ .oXXo. @@@@@@@@",
"@@@@@@@ XoXXXXoX @@@@@@@@@@@@@@ .oXXXXo. @@@@@@@",
"@@@@@@ .XXoXXoXX. @@@@@@@@@@@@@ XoXXXXoX @@@@@@@",
"@@@@@@ ..XXXXXX.. @@@@@@@@@@@@ .XXoXXoXX. @@@@@@",
"@@@@@@  ...XX...  @@@@@@@@@@@@ ..XXXXXX.. @@@@@@",
"@@@@@@@  ......  @@@@@@@@@@@@@  ...XX...  @@@@@@",
"@@@@@@@    ..    @@@@@@@@@@@@@@  ......  @@@@@@@",
"@@@@@@@@        @@@@@@@@@@@@@@@    ..    @@@@@@@",
"@@@@@@@X+      +X@@@@@@@@@@@@@Xo        @@@@@@@@",
"@@@@@@Xo++++++++oX@@@@@@@@@@@@XO+      +X@@@@@@@",
"@@@@@@XOo++++++oOX@@@@@@@@@@@@@X++++++++X@@@@@@@",
"@@@@@@@XX++++++XX@@@@@@@@@@@@@@@X++++++oX@@@@@@@",
"@@@@@@@@XooXXooX@@@@@@@@@@@@@@@@X+++++oOX@@@@@@@",
"@@@@@@@@@XX@@XX@@@@@@@@@@@@@@@@@X++++oXX@@@@@@@@",
"@@@@@@@@@@@@@@@@@@@@@@@@@@@@@@@@@XooXX@@@@@@@@@@",
"@@@@@@@@@@@@@@@@@@@@@@@@@@@@@@@@@@XX@@@@@@@@@@@@",
"@@@@@@@@@@@@@@@@@@@@@@@@@@@@@@@@@@@@@@@@@@@@@@@@",
"@@@@@@@@@@@@@@@@@@@@@@@@@@@@@@@@@@@@@@@@@@@@@@@@"
};
