/* XPM */
static char *result[] = {
/* columns rows colors chars-per-pixel */
"48 48 9 1 ",
"  c #412F2F",
". c #915841",
"X c #A0654D",
"o c #B56E4B",
"O c #E09669",
"+ c #F6C192",
"@ c #CFCCC5",
"# c #F1E6D6",
"$ c None",
/* pixels */
"$$$$$$$$$$$$$$$$$$$$$$$$$$$$$$$$$$$$$$$$$$$$$$$$",
"$$$$$$$$$$$$$$$$$$$$$$$$$$$$$$$$$$$$$$$$$$$$$$$$",
"$$$$$$$$$$$$$$$$$$$$$$$$$$$$$$$$$$$$$$$$$$$$$$$$",
"$$$$$$$$$$$$$$$$$$$$$$$$$$$$$$$$$$$$$$$$$$$$$$$$",
"$$$$$$$$$......$$$$$$$$$$$$$$$$$$$$$$$$$$$$$$$$$",
"$$$$$$$$.XOooOX.$$$$$$$$$$$$$$$$$......$$$$$$$$$",
"$$$$$$$.XOooooOX.$$$$$$$$$$$$$$$.XOooOX.$$$$$$$$",
"$$$$$$$.XOooooOo.$$$$$$$$$$$$$$.XOooooOX.$$$$$$$",
"$$$$$$.XXXOooOooX.$$$$$$$$$$$$$.XOooooOo.$$$$$$$",
"$$$$$$.XXX..oooXX.$$$$$$$$$$$$.XXXOooOooX.$$$$$$",
"$$$$$$.XX.OO..XXX.$$$$$$$$$$$$.XXX..oooXX.$$$$$$",
"$$$$$$$..O++OO...$$$$$$$$$$$$$.XX.OO..XXX.$$$$$$",
"$$$$$$$.O#.++.#O.$$$$$$$$$$$$$$..O++OO...$$$$$$$",
"$$$$$$$$.+ ++ +.$$$$$$$$$$$$$$$.O#.++.#O.$$$$$$$",
"$$$$$$$o@O++++O@o$$$$$$$$$$$$$$$.+ ++ +.Oo$$$$$$",
"$$$$$$oO@@OOOO@@Oo$$$$$$$$$$$$$o@O++++O@+o$$$$$$",
"$$$$$$o+O@@@@@@O+o$$$$$$$$$$$$$o@@OOOO@@o$$$$$$$",
"$$$$$$$oo@@@@@@oo$$$$$$$$$$$$$$oO@@@@@@o$$$$$$$$",
"$$$$$$$$oOOooOOo$$$$$$$$$$$$$$$o+O@@@@@o$$$$$$$$",
"$$$$$$$$$oo$$oo$$$$$$$$$$$$$$$$$ooO@@@@o$$$$$$$$",
"$$$$$$$$$$$$$$$$$$$$$$$$$$$$$$$$$$ooOOo$$$$$$$$$",
"$$$$$$$$$$$$$$$$$$$$$$$$$$$$$$$$$$$$oo$$$$$$$$$$",
"$$$$$$$$$$$$$$$$$$$$$$$$$$$$$$$$$$$$$$$$$$$$$$$$",
"$$$$$$$$$$$$$$$$$$$$$$$$$$$$$$$$$$$$$$$$$$$$$$$$",
"$$$$$$$$$$$$$$$$$$$$$$$$$$$$$$$$$$$$$$$$$$$$$$$$",
"$$$$$$$$$$$$$$$$$$$$$$$$$$$$$$$$$$$$$$$$$$$$$$$$",
"$$$$$$$$$$$$$$$$$$$$$$$$$$$$$$$$$$$$$$$$$$$$$$$$",
"$$$$$$$$$$$$$$$$$$$$$$$$$$$$$$$$$$$$$$$$$$$$$$$$",
"$$$$$$$$$......$$$$$$$$$$$$$$$$$$$$$$$$$$$$$$$$$",
"$$$$$$$$.XOooOX.$$$$$$$$$$$$$$$$$......$$$$$$$$$",
"$$$$$$$.XOooooOX.$$$$$$$$$$$$$$$.XOooOX.$$$$$$$$",
"$$$$$$$.XOooooOo.$$$$$$$$$$$$$$.XOooooOX.$$$$$$$",
"$$$$$$.XXXOooOooX.$$$$$$$$$$$$$.XOooooOo.$$$$$$$",
"$$$$$$.XXX..oooXX.$$$$$$$$$$$$.XXXOooOooX.$$$$$$",
"$$$$$$.XX.OO..XXX.$$$$$$$$$$$$.XXX..oooXX.$$$$$$",
"$$$$$$$..O++OO...$$$$$$$$$$$$$.XX.OO..XXX.$$$$$$",
"$$$$$$$.O#.++.#O.$$$$$$$$$$$$$$..O++OO...$$$$$$$",
"$$$$$$$$.+ ++ +.$$$$$$$$$$$$$$$.O#.++.#O.$$$$$$$",
"$$$$$$$o@O++++O@o$$$$$$$$$$$$$oO.+ ++ +.$$$$$$$$",
"$$$$$$oO@@OOOO@@Oo$$$$$$$$$$$$o+@O++++O@o$$$$$$$",
"$$$$$$o+O@@@@@@O+o$$$$$$$$$$$$$o@@OOOO@@o$$$$$$$",
"$$$$$$$oo@@@@@@oo$$$$$$$$$$$$$$$o@@@@@@Oo$$$$$$$",
"$$$$$$$$oOOooOOo$$$$$$$$$$$$$$$$o@@@@@O+o$$$$$$$",
"$$$$$$$$$oo$$oo$$$$$$$$$$$$$$$$$o@@@@Ooo$$$$$$$$",
"$$$$$$$$$$$$$$$$$$$$$$$$$$$$$$$$$oOOoo$$$$$$$$$$",
"$$$$$$$$$$$$$$$$$$$$$$$$$$$$$$$$$$oo$$$$$$$$$$$$",
"$$$$$$$$$$$$$$$$$$$$$$$$$$$$$$$$$$$$$$$$$$$$$$$$",
"$$$$$$$$$$$$$$$$$$$$$$$$$$$$$$$$$$$$$$$$$$$$$$$$"
};
