/* XPM */
static char *result[] = {
/* columns rows colors chars-per-pixel */
"48 48 9 1 ",
"  c #412F2F",
". c #915841",
"X c #A0654D",
"o c #B56E4B",
"O c #E09669",
"+ c #F6C192",
"@ c #CFCCC5",
"# c #F1E6D6",
"$ c None",
/* pixels */
"$$$$$$$$$$$$$$$$$$$$$$$$$$$$$$$$$$$$$$$$$$$$$$$$",
"$$$$$$$$$$$$$$$$$$$$$$$$$$$$$$$$$$$$$$$$$$$$$$$$",
"$$$$$$$$$$$$$$$$$$$$$$$$$$$$$$$$$$$$$$$$$$$$$$$$",
"$$$$$$$$$$$$$$$$$$$$$$$$$$$$$$$$$$$$$$$$$$$$$$$$",
"$$$$$$$$$.....$$$$$$$$$$$$$$$$$$$$$$$$$$$$$$$$$$",
"$$$$$$$$.oOooo.$$$$$$$$$$$$$$$$$$.....$$$$$$$$$$",
"$$$$$$$.oOooooo.$$$$$$$$$$$$$$$$.oOooo.$$$$$$$$$",
"$$$$$$.XoOoooOoX.$$$$$$$$$$$$$$.oOooooo.$$$$$$$$",
"$$$$$$.XooOOOoXX.$$$$$$$$$$$$$.XoOoooOoX.$$$$$$$",
"$$$$$$.XXoooo....$$$$$$$$$$$$$.XooOOOoXX.$$$$$$$",
"$$$$$$.XXXXX.#.O$$$$$$$$$$$$$$.XXoooo....$$$$$$$",
"$$$$$$.XXXXX.+ O$$$$$$$$$$$$$$.XXXXX.#.O$$$$$$$$",
"$$$$$$$.XXX.+++O$$$$$$$$$$$$$$.XXXXX.+ O$$$$$$$$",
"$$$$$$$$...oOOO$$$$$$$$$$$$$$$$.XXX.+++O$$$$$$$$",
"$$$$$$$$$o@@oo$$$$$$$$$$$$$$$$$$...oOOO$$$$$$$$$",
"$$$$$$$$o@@@@@o$$$$$$$$$$$$$$$$$$o@@oo$$$$$$$$$$",
"$$$$$$$$o@@o@Oo$$$$$$$$$$$$$$$$$o@@@@@o$$$$$$$$$",
"$$$$$$$$o@@oO+o$$$$$$$$$$$$$$$$$o@@o@@Oo$$$$$$$$",
"$$$$$$$$$oOOoo$$$$$$$$$$$$$$$$$$o@@@oO+o$$$$$$$$",
"$$$$$$$$$$ooo$$$$$$$$$$$$$$$$$$$oOOoooo$$$$$$$$$",
"$$$$$$$$$$$$$$$$$$$$$$$$$$$$$$$$$oo$$$$$$$$$$$$$",
"$$$$$$$$$$$$$$$$$$$$$$$$$$$$$$$$$$$$$$$$$$$$$$$$",
"$$$$$$$$$$$$$$$$$$$$$$$$$$$$$$$$$$$$$$$$$$$$$$$$",
"$$$$$$$$$$$$$$$$$$$$$$$$$$$$$$$$$$$$$$$$$$$$$$$$",
"$$$$$$$$$$$$$$$$$$$$$$$$$$$$$$$$$$$$$$$$$$$$$$$$",
"$$$$$$$$$$$$$$$$$$$$$$$$$$$$$$$$$$$$$$$$$$$$$$$$",
"$$$$$$$$$$$$$$$$$$$$$$$$$$$$$$$$$$$$$$$$$$$$$$$$",
"$$$$$$$$$$$$$$$$$$$$$$$$$$$$$$$$$$$$$$$$$$$$$$$$",
"$$$$$$$$$.....$$$$$$$$$$$$$$$$$$$$$$$$$$$$$$$$$$",
"$$$$$$$$.oOooo.$$$$$$$$$$$$$$$$$$.....$$$$$$$$$$",
"$$$$$$$.oOooooo.$$$$$$$$$$$$$$$$.oOooo.$$$$$$$$$",
"$$$$$$.XoOoooOoX.$$$$$$$$$$$$$$.oOooooo.$$$$$$$$",
"$$$$$$.XooOOOoXX.$$$$$$$$$$$$$.XoOoooOoX.$$$$$$$",
"$$$$$$.XXoooo....$$$$$$$$$$$$$.XooOOOoXX.$$$$$$$",
"$$$$$$.XXXXX.#.O$$$$$$$$$$$$$$.XXoooo....$$$$$$$",
"$$$$$$.XXXXX.+ O$$$$$$$$$$$$$$.XXXXX.#.O$$$$$$$$",
"$$$$$$$.XXX.+++O$$$$$$$$$$$$$$.XXXXX.+ O$$$$$$$$",
"$$$$$$$$...oOOO$$$$$$$$$$$$$$$$.XXX.+++O$$$$$$$$",
"$$$$$$$$$o@@oo$$$$$$$$$$$$$$$$$$...oOOO$$$$$$$$$",
"$$$$$$$$o@@@@@o$$$$$$$$$$$$$$$$$$o@@oo$$$$$$$$$$",
"$$$$$$$$o@@o@Oo$$$$$$$$$$$$$$$$$o@@@@@o$$$$$$$$$",
"$$$$$$$$o@@oO+o$$$$$$$$$$$$$$$$$o@o@Oooo$$$$$$$$",
"$$$$$$$$$oOOoo$$$$$$$$$$$$$$$$$$o@oO+oOo$$$$$$$$",
"$$$$$$$$$$ooo$$$$$$$$$$$$$$$$$$$oOOoooo$$$$$$$$$",
"$$$$$$$$$$$$$$$$$$$$$$$$$$$$$$$$$oo$$$$$$$$$$$$$",
"$$$$$$$$$$$$$$$$$$$$$$$$$$$$$$$$$$$$$$$$$$$$$$$$",
"$$$$$$$$$$$$$$$$$$$$$$$$$$$$$$$$$$$$$$$$$$$$$$$$",
"$$$$$$$$$$$$$$$$$$$$$$$$$$$$$$$$$$$$$$$$$$$$$$$$"
};
