/* XPM */
static char *result[] = {
/* columns rows colors chars-per-pixel */
"48 48 9 1 ",
"  c #412F2F",
". c #915841",
"X c #A0654D",
"o c #B56E4B",
"O c #E09669",
"+ c #F6C192",
"@ c #CFCCC5",
"# c #F1E6D6",
"$ c None",
/* pixels */
"$$$$$$$$$$$$$$$$$$$$$$$$$$$$$$$$$$$$$$$$$$$$$$$$",
"$$$$$$$$$$$$$$$$$$$$$$$$$$$$$$$$$$$$$$$$$$$$$$$$",
"$$$$$$$$$$$$$$$$$$$$$$$$$$$$$$$$$$$$$$$$$$$$$$$$",
"$$$$$$$$$$$$$$$$$$$$$$$$$$$$$$$$$$$$$$$$$$$$$$$$",
"$$$$$$$$$$.....$$$$$$$$$$$$$$$$$$$$$$$$$$$$$$$$$",
"$$$$$$$$$.oooOo.$$$$$$$$$$$$$$$$$$.....$$$$$$$$$",
"$$$$$$$$.oooooOo.$$$$$$$$$$$$$$$$.oooOo.$$$$$$$$",
"$$$$$$$.XoOoooOoX.$$$$$$$$$$$$$$.oooooOo.$$$$$$$",
"$$$$$$$.XXoOOOooX.$$$$$$$$$$$$$.XoOoooOoX.$$$$$$",
"$$$$$$$....ooooXX.$$$$$$$$$$$$$.XXoOOOooX.$$$$$$",
"$$$$$$$$O.#.XXXXX.$$$$$$$$$$$$$....ooooXX.$$$$$$",
"$$$$$$$$O +.XXXXX.$$$$$$$$$$$$$$O.#.XXXXX.$$$$$$",
"$$$$$$$$O+++.XXX.$$$$$$$$$$$$$$$O +.XXXXX.$$$$$$",
"$$$$$$$$$OOOo...$$$$$$$$$$$$$$$$O+++.XXX.$$$$$$$",
"$$$$$$$$$$oo@@o$$$$$$$$$$$$$$$$$$OOOo...$$$$$$$$",
"$$$$$$$$$o@@@@@o$$$$$$$$$$$$$$$$$$oo@@o$$$$$$$$$",
"$$$$$$$$$oO@o@@o$$$$$$$$$$$$$$$$$o@@@@@o$$$$$$$$",
"$$$$$$$$$o+Oo@@o$$$$$$$$$$$$$$$$oO@@o@@o$$$$$$$$",
"$$$$$$$$$$ooOOo$$$$$$$$$$$$$$$$$o+Oo@@@o$$$$$$$$",
"$$$$$$$$$$$ooo$$$$$$$$$$$$$$$$$$$ooooOOo$$$$$$$$",
"$$$$$$$$$$$$$$$$$$$$$$$$$$$$$$$$$$$$$oo$$$$$$$$$",
"$$$$$$$$$$$$$$$$$$$$$$$$$$$$$$$$$$$$$$$$$$$$$$$$",
"$$$$$$$$$$$$$$$$$$$$$$$$$$$$$$$$$$$$$$$$$$$$$$$$",
"$$$$$$$$$$$$$$$$$$$$$$$$$$$$$$$$$$$$$$$$$$$$$$$$",
"$$$$$$$$$$$$$$$$$$$$$$$$$$$$$$$$$$$$$$$$$$$$$$$$",
"$$$$$$$$$$$$$$$$$$$$$$$$$$$$$$$$$$$$$$$$$$$$$$$$",
"$$$$$$$$$$$$$$$$$$$$$$$$$$$$$$$$$$$$$$$$$$$$$$$$",
"$$$$$$$$$$$$$$$$$$$$$$$$$$$$$$$$$$$$$$$$$$$$$$$$",
"$$$$$$$$$$.....$$$$$$$$$$$$$$$$$$$$$$$$$$$$$$$$$",
"$$$$$$$$$.oooOo.$$$$$$$$$$$$$$$$$$.....$$$$$$$$$",
"$$$$$$$$.oooooOo.$$$$$$$$$$$$$$$$.oooOo.$$$$$$$$",
"$$$$$$$.XoOoooOoX.$$$$$$$$$$$$$$.oooooOo.$$$$$$$",
"$$$$$$$.XXoOOOooX.$$$$$$$$$$$$$.XoOoooOoX.$$$$$$",
"$$$$$$$....ooooXX.$$$$$$$$$$$$$.XXoOOOooX.$$$$$$",
"$$$$$$$$O.#.XXXXX.$$$$$$$$$$$$$....ooooXX.$$$$$$",
"$$$$$$$$O +.XXXXX.$$$$$$$$$$$$$$O.#.XXXXX.$$$$$$",
"$$$$$$$$O+++.XXX.$$$$$$$$$$$$$$$O +.XXXXX.$$$$$$",
"$$$$$$$$$OOOo...$$$$$$$$$$$$$$$$O+++.XXX.$$$$$$$",
"$$$$$$$$$$oo@@o$$$$$$$$$$$$$$$$$$OOOo...$$$$$$$$",
"$$$$$$$$$o@@@@@o$$$$$$$$$$$$$$$$$$oo@@o$$$$$$$$$",
"$$$$$$$$$oO@o@@o$$$$$$$$$$$$$$$$$o@@@@@o$$$$$$$$",
"$$$$$$$$$o+Oo@@o$$$$$$$$$$$$$$$$oooO@o@o$$$$$$$$",
"$$$$$$$$$$ooOOo$$$$$$$$$$$$$$$$$oOo+Oo@o$$$$$$$$",
"$$$$$$$$$$$ooo$$$$$$$$$$$$$$$$$$$ooooOOo$$$$$$$$",
"$$$$$$$$$$$$$$$$$$$$$$$$$$$$$$$$$$$$$oo$$$$$$$$$",
"$$$$$$$$$$$$$$$$$$$$$$$$$$$$$$$$$$$$$$$$$$$$$$$$",
"$$$$$$$$$$$$$$$$$$$$$$$$$$$$$$$$$$$$$$$$$$$$$$$$",
"$$$$$$$$$$$$$$$$$$$$$$$$$$$$$$$$$$$$$$$$$$$$$$$$"
};
