/* XPM */
static char *ec946e3fdabe4307a0f5079de78d84d7TABVymL7g5ZICbQu[] = {
/* columns rows colors chars-per-pixel */
"32 32 5 1 ",
"  c #8D5B3C",
". c #C0462C",
"X c #FDAF32",
"o c #C78655",
"O c #FFDA41",
/* pixels */
"oooooooooooooooooooooooooooooooo",
"oooooooooooooooooooooooooooooooo",
"oooooo oooooooooooooooooooo  ooo",
"ooooooooooooXXXXXXX..oooooooo oo",
"ooooooooooXX.XXXXXXXX..ooooooooo",
"oooooooooX.XXXXXXXXXXX..oooooooo",
"ooooooooX.XXXXXXXXXXOOX..ooooooo",
"oooooooX.XXXXXXXXXXOOOOX..oooooo",
"oooooooX.XXXXX.X.XOOOOXX..oooooo",
"oooooooX.XXXXX.X.OOOOXXX..oooooo",
"ooooooX.XXXX.......OXXXXX..ooooo",
"ooooooX.XXXXX.......XXXXX..ooooo",
"ooooooX.XXXXX..OO...XXXXX..ooooo",
"ooooooX.XXXXX..OO...XXXXX..ooooo",
"ooooooX.XXXXO......XXXXXX..ooooo",
"ooooooX.XXXOO......XXXXXX..ooooo",
"ooooooX.XXOOO..XX...XXXXX..ooooo",
"ooooooX.XOOOO..XX...XXXXX..ooooo",
"ooooooX.XOOOX.......XXXXX..ooooo",
"ooooooX.XOOX.......XXXXXX..ooooo",
"ooooo  X.XXXXX.X.XXXXXXX..oooooo",
"oooo ooX.XXXXX.X.XXXXXXX..oooooo",
"oooooooX.XXXXXXXXXXXXXXX..oooooo",
"ooooooooX.XXXXXXXXXXXXX..ooooooo",
"oooooooooX.XXXXXXXXXXX..oooooooo",
"ooooooooooXX.XXXXXXXX..ooooooooo",
"ooooooooooooXXXXXXX..ooooooooooo",
"oooooooooooooooooooooooooooooooo",
"oooooooooooooooooooooooooooo ooo",
"oooooooooooooooooooooooooooooooo",
"oooooooooooooooooooooooooooooooo",
"oooooooooooooooooooooooooooooooo"
};
