/* XPM */
static char *result[] = {
/* columns rows colors chars-per-pixel */
"32 32 11 1 ",
"  c #4F342F",
". c #724B2C",
"X c #8C5B3E",
"o c #B47538",
"O c #807B7A",
"+ c #F8C53A",
"@ c #C68556",
"# c #D6A851",
"$ c #A69E9A",
"% c #FFF089",
"& c None",
/* pixels */
"$$$$$$$$OXXXXXXXXXXXXXXO$$$$$$$$",
"$$$$$$OXX@@@@@@@@@@@@@@XXO$$$$$$",
"$$$$$OX@@X            X@@XO$$$$$",
"$$$$OX@X  oooooooooooo  X@XO$$$$",
"$$$OX@X ooo##########ooo X@XO$$$",
"$$$X@X oo#####XXXX#####oo X@X$$$",
"$$OX@ oo####XX@@@@XX####oo @XO$$",
"$$X@X o####X@@XXXX@@X####o X@X$$",
"$O @ oo###X@XX++++XX@X###oo @ O$",
"$O X o###X@X++%%%%++X@X###o X O$",
"$O X o### X +%%%%%%+ X ###o X O$",
"$O X o###o X  +%%+  X o###o X O$",
"$O X o####o XX    XX o####o X O$",
"$O X o#####o  XXXX  o#####o X O$",
"$O X o#######o    o#######o X O$",
"$O X o####################o X O$",
"$O X o####################o X O$",
"$O X o################  ##o X O$",
"$O X o############### @@ #o X O$",
"$O X o############### XX #o X O$",
"$O X o#o#############o  o#o X O$",
"$O X o#o##############oo##o X O$",
"$O X o#o##################o X O$",
"$O X o#o##################o X O$",
"OO X o#################o##o X OO",
"OO X o###o################o X OO",
"X  X o####################o X  X",
"@@ X o#o##################o X @@",
"XX X o#o#o#############o##o X XX",
"   X oooooooooooooooooooooo X   ",
"&& X ...................... X &&",
"&&   &&&&&&&&&&&&&&&&&&&&&&   &&"
};
