/* XPM */
static char *_864f39781b74d4b94688affd674ca0aO14OdaTZwkulUi5E[] = {
/* columns rows colors chars-per-pixel */
"32 32 8 1 ",
"  c #202741",
". c #67356C",
"X c #374267",
"o c #8D5B3C",
"O c #C0462C",
"+ c #D87741",
"@ c #C78655",
"# c #C1CDDD",
/* pixels */
"@@@@@@@@@@@@   @@@@@@@@@@@@@@@@@",
"@@@@@@@@@@@     @@@@@@@@@@@@@@@@",
"@@@@@@o@@@@  ++ @@@@@@@@@@@oo@@@",
"@@@@@@@@@@   OO  @@@@@@@@@@@@o@@",
"@@@@@@@@@@   ++  @@@@@@@@@@@@@@@",
"@@@@@@@@@    +#   @@@@@@@@@@@@@@",
"@@@@@@@@@    ++   @@@@@@@@@@@@@@",
"@@@@@@@@@####++###@@@@@@@@@@  @@",
"@@@@@@@@######+####@@@@@@@@X  @@",
"@@@@@@@@++########+@@@@@@+X  @@@",
"@@@@@@@+++######    +@  ++@@@@@@",
"@@@@@@@++##   #      XX++@@@@@@@",
"@@@@@@++++        XXX+++@@@@@@@@",
"@@@@@@@+++++  ++XX   @@@@@@@@@@@",
"@@@@@@@@@ ++++++     oo@@@@@@@@@",
"@@@@@@@@@ +++++     @@@o@@@@@@@@",
"@@@@@@@@@         @@@@@@@@@@@@@@",
"@@@@@@@@@        @@@@@@@@@@@@@@@",
"@@@@@@@@@@.     .@@@@@@@@@@@@@@@",
"@@@@@@o@@@...@@..@@@@@@@@@@@@@@@",
"@@@@@ooo@@@..@@..@@@@@@@@@@@@@@@",
"@@@@o@@@@@@..@@..@@@@@@@@@@@@@@@",
"@@@@@@@@@@@..@@..@@@@@@@@@@@@@@@",
"@@@@@@@@@@@..@..@@@@@@@@@@@@@@@@",
"@@@@@@@@@@..@@..@@@@@@@@@@@@@@@@",
"@@@@@@@@@@..@@..@@@@@@@@@@@@@@@@",
"@@@@@@@@@@..@@..@@@@@@@@@@@@@@@@",
"@@@@@@@@@@.@@@.@@@@@@@@@@@@@@@@@",
"@@@@@@@@@@.@@@.@@@@@@@@@@@@@o@@@",
"@@@@@@@@@@.@@@.@@@@@@@@@@@@@@@@@",
"@@@@@@@@@@  @@  @@@@@@@@@@@@@@@@",
"@@@@@@@@@@###@####@@@@@@@@@@@@@@"
};
