/* XPM */
static char *result[] = {
/* columns rows colors chars-per-pixel */
"32 32 7 1 ",
"  c #252B43",
". c #67386C",
"X c #3A4467",
"o c #BF4830",
"O c #D77643",
"+ c #C0CCDC",
"@ c None",
/* pixels */
"@@@@@@@@@@@@   @@@@@@@@@@@@@@@@@",
"@@@@@@@@@@@     @@@@@@@@@@@@@@@@",
"@@@@@@@@@@@  OO @@@@@@@@@@@@@@@@",
"@@@@@@@@@@   oo  @@@@@@@@@@@@@@@",
"@@@@@@@@@@   OO  @@@@@@@@@@@@@@@",
"@@@@@@@@@    O+   @@@@@@@@@@@@@@",
"@@@@@@@@@    OO   @@@@@@@@@@@@@@",
"@@@@@@@@@++++OO+++@@@@@@@@@@  @@",
"@@@@@@@@++++++O++++@@@@@@@@X  @@",
"@@@@@@@@OO++++++++O@@@@@@OX  @@@",
"@@@@@@@OOO++++++    O@  OO@@@@@@",
"@@@@@@@OO++   +      XXOO@@@@@@@",
"@@@@@@OOOO        XXXOOO@@@@@@@@",
"@@@@@@@OOOOO  OOXX   @@@@@@@@@@@",
"@@@@@@@@@ OOOOOO     @@@@@@@@@@@",
"@@@@@@@@@ OOOOO     @@@@@@@@@@@@",
"@@@@@@@@@         @@@@@@@@@@@@@@",
"@@@@@@@@@        @@@@@@@@@@@@@@@",
"@@@@@@@@@@.     .@@@@@@@@@@@@@@@",
"@@@@@@@@@@...@@..@@@@@@@@@@@@@@@",
"@@@@@@@@@@@..@@..@@@@@@@@@@@@@@@",
"@@@@@@@@@@@..@@..@@@@@@@@@@@@@@@",
"@@@@@@@@@@@..@@..@@@@@@@@@@@@@@@",
"@@@@@@@@@@@..@..@@@@@@@@@@@@@@@@",
"@@@@@@@@@@..@@..@@@@@@@@@@@@@@@@",
"@@@@@@@@@@..@@..@@@@@@@@@@@@@@@@",
"@@@@@@@@@@..@@..@@@@@@@@@@@@@@@@",
"@@@@@@@@@@.@@@.@@@@@@@@@@@@@@@@@",
"@@@@@@@@@@.@@@.@@@@@@@@@@@@@@@@@",
"@@@@@@@@@@.@@@.@@@@@@@@@@@@@@@@@",
"@@@@@@@@@@  @@  @@@@@@@@@@@@@@@@",
"@@@@@@@@@@+++@++++@@@@@@@@@@@@@@"
};
