/* XPM */
static char *ffd81f1e2772437781fec6adab49aa6deGrc31OWvSnUas5F[] = {
/* columns rows colors chars-per-pixel */
"32 32 7 1 ",
"  c #4E312B",
". c #576332",
"X c #8D5B3C",
"o c #AEB931",
"O c #808F42",
"+ c #C78655",
"@ c #D7A950",
/* pixels */
"++++++++++++++++++++++++++++++++",
"++++++++++++++++++++++++++++++++",
"++++++X++++++++++++++++++++XX+++",
"+++++++++++++++++++++++++++++X++",
"++++++++++++++++++++++++++++++++",
"++++++++++++++++++++++++++++++++",
"++++++++++++       +++++++++++++",
"++++++++++  XXXXXXX  +++++++++++",
"+++++++++ X+++++++++X ++++++++++",
"++++++++ X++@@@@@@@++X +++++++++",
"++++++++ X+@@+@@@+@@+X +++++++++",
"+++++.+  X++@@+++@@@+X  ++++++++",
"++++.o.+ X+@@@+++@@++X + +++++++",
"++++++.X X+@@+@@@+@@+X X.+++++++",
"+++++++. X++@@@@@@@++X .++++++++",
"++++++++ XX+++++++++XX X++++++++",
"++++++++  XXXXXXXXXXX  +++++++++",
"++++++++ X           X +.+++++++",
"++++++++ +XX XX XXX X+ .o.++++++",
"++++++X+ +XX XXXXXX X+ .++++++++",
"+++++X.X +XXXXX X+XXX+ +++++++++",
"++++X.o +XXX+XXXXXX XX+ ++++++++",
"+++++++ XXXXXX.XX XXXXX ++++++++",
"++++++ +XXX X.o.X X.XXX+ +++++++",
"+++++.+XXX....Oo...o.XXX+ ++++++",
"++++.o.X..+++++++++++..XX.++++++",
"+++++Oo.+++++++++++++++..o.+++++",
"++++++++++++++++++++++++++++++++",
"++++++++++++++++++++++++++++X+++",
"++++++++++++++++++++++++++++++++",
"++++++++++++++++++++++++++++++++",
"++++++++++++++++++++++++++++++++"
};
